# xmcd CD database file
#
# Track frame offsets:
#	150
#	7505
#	25952
#	45303
#	63219
#	84747
#	98976
#	115564
#	139163
#	158454
#	191604
#	204356
#	224872
#	261197
#
# Disc length: 3856 seconds
#
# Revision: 1
# Processed by: cddbd v1.5.1PL0 Copyright (c) Steve Scherf et al.
# Submitted via: CDex 1.51
#
DISCID=b20f0e0e
DTITLE=Bernie Marsden - Big Boy Blue - Disk 1
DYEAR=2003
DGENRE=Blues
TTITLE0=Burn Your Bridges
TTITLE1=Working For The CSA
TTITLE2=Man Or Mouse
TTITLE3=Dream On
TTITLE4=Downhome Blues
TTITLE5=Lady Friend
TTITLE6=Memphis
TTITLE7=Funny People
TTITLE8=Loved Another Woman
TTITLE9=Pick It Up
TTITLE10=Do It If You Wanna
TTITLE11=Place In My Heart
TTITLE12=Tone Down
TTITLE13=DATA
EXTD=YEAR: 2003
EXTT0=
EXTT1=
EXTT2=
EXTT3=
EXTT4=
EXTT5=
EXTT6=
EXTT7=
EXTT8=
EXTT9=
EXTT10=
EXTT11=
EXTT12=
EXTT13=
PLAYORDER=
